<svg width="16" height="12" viewBox="0 0 16 12" fill="none" xmlns="http://www.w3.org/2000/svg">
<rect width="16" height="12" fill="white"/>
<path fill-rule="evenodd" clip-rule="evenodd" d="M0 0L16 7.32887e-05V0.923737H8V1.84739H16V2.77105H8V3.69473H16V4.61839H8V5.54204H16V6.46571L0 6.46563V0ZM1.05263 0.800435L0.842105 1.00056L0.631579 0.800435L0.842105 0.600308L1.05263 0.800435ZM2.31579 0.800435L2.10526 1.00056L1.89474 0.800435L2.10526 0.600308L2.31579 0.800435ZM3.36842 1.00056L3.57895 0.800435L3.36842 0.600308L3.15789 0.800435L3.36842 1.00056ZM4.84211 0.800435L4.63158 1.00056L4.42105 0.800435L4.63158 0.600308L4.84211 0.800435ZM5.89474 1.00056L6.10526 0.800435L5.89474 0.600308L5.68421 0.800435L5.89474 1.00056ZM7.36842 0.800435L7.15789 1.00056L6.94737 0.800435L7.15789 0.600308L7.36842 0.800435ZM1.47368 1.80107L1.68421 1.60094L1.47368 1.40082L1.26316 1.60094L1.47368 1.80107ZM2.94737 1.60094L2.73684 1.80107L2.52632 1.60094L2.73684 1.40082L2.94737 1.60094ZM4 1.80107L4.21053 1.60094L4 1.40082L3.78947 1.60094L4 1.80107ZM5.47368 1.60094L5.26316 1.80107L5.05263 1.60094L5.26316 1.40082L5.47368 1.60094ZM6.52632 1.80107L6.73684 1.60094L6.52632 1.40082L6.31579 1.60094L6.52632 1.80107ZM1.05263 2.40145L0.842105 2.60158L0.631579 2.40145L0.842105 2.20132L1.05263 2.40145ZM2.10526 2.60158L2.31579 2.40145L2.10526 2.20132L1.89474 2.40145L2.10526 2.60158ZM3.57895 2.40145L3.36842 2.60158L3.15789 2.40145L3.36842 2.20132L3.57895 2.40145ZM4.63158 2.60158L4.84211 2.40145L4.63158 2.20132L4.42105 2.40145L4.63158 2.60158ZM6.10526 2.40145L5.89474 2.60158L5.68421 2.40145L5.89474 2.20132L6.10526 2.40145ZM7.15789 2.60158L7.36842 2.40145L7.15789 2.20132L6.94737 2.40145L7.15789 2.60158ZM1.68421 3.20196L1.47368 3.40209L1.26316 3.20196L1.47368 3.00183L1.68421 3.20196ZM2.73684 3.40209L2.94737 3.20196L2.73684 3.00183L2.52632 3.20196L2.73684 3.40209ZM4.21053 3.20196L4 3.40209L3.78947 3.20196L4 3.00183L4.21053 3.20196ZM5.26316 3.40209L5.47368 3.20196L5.26316 3.00183L5.05263 3.20196L5.26316 3.40209ZM6.73684 3.20196L6.52632 3.40209L6.31579 3.20196L6.52632 3.00183L6.73684 3.20196ZM0.842105 4.20259L1.05263 4.00247L0.842105 3.80234L0.631579 4.00247L0.842105 4.20259ZM2.31579 4.00247L2.10526 4.20259L1.89474 4.00247L2.10526 3.80234L2.31579 4.00247ZM3.36842 4.20259L3.57895 4.00247L3.36842 3.80234L3.15789 4.00247L3.36842 4.20259ZM4.84211 4.00247L4.63158 4.20259L4.42105 4.00247L4.63158 3.80234L4.84211 4.00247ZM5.89474 4.20259L6.10526 4.00247L5.89474 3.80234L5.68421 4.00247L5.89474 4.20259ZM7.36842 4.00247L7.15789 4.20259L6.94737 4.00247L7.15789 3.80234L7.36842 4.00247ZM1.47368 5.0031L1.68421 4.80298L1.47368 4.60285L1.26316 4.80298L1.47368 5.0031ZM2.94737 4.80298L2.73684 5.0031L2.52632 4.80298L2.73684 4.60285L2.94737 4.80298ZM4 5.0031L4.21053 4.80298L4 4.60285L3.78947 4.80298L4 5.0031ZM5.47368 4.80298L5.26316 5.0031L5.05263 4.80298L5.26316 4.60285L5.47368 4.80298ZM6.52632 5.0031L6.73684 4.80298L6.52632 4.60285L6.31579 4.80298L6.52632 5.0031ZM1.05263 5.60348L0.842105 5.80361L0.631579 5.60348L0.842105 5.40336L1.05263 5.60348ZM2.10526 5.80361L2.31579 5.60348L2.10526 5.40336L1.89474 5.60348L2.10526 5.80361ZM3.57895 5.60348L3.36842 5.80361L3.15789 5.60348L3.36842 5.40336L3.57895 5.60348ZM4.63158 5.80361L4.84211 5.60348L4.63158 5.40336L4.42105 5.60348L4.63158 5.80361ZM6.10526 5.60348L5.89474 5.80361L5.68421 5.60348L5.89474 5.40336L6.10526 5.60348ZM7.15789 5.80361L7.36842 5.60348L7.15789 5.40336L6.94737 5.60348L7.15789 5.80361Z" fill="#BD0C3C"/>
<path d="M16 7.39708V8.29765H0V7.39708H16Z" fill="#BD0C3C"/>
<path d="M16 10.1989V9.19822H0V10.1989H16Z" fill="#BD0C3C"/>
<path d="M16 11.0994V12H0V11.0994H16Z" fill="#BD0C3C"/>
<g clip-path="url(#clip0_615_467)">
<rect width="8" height="7" fill="#FAFAFA"/>
<rect y="6" width="8" height="1" fill="white"/>
<path fill-rule="evenodd" clip-rule="evenodd" d="M0 0L16 7.32887e-05V0.923737H8V1.84739H16V2.77105H8V3.69473H16V4.61839H8V5.54204H16V6.46571L0 6.46563V0ZM1.05263 0.800435L0.842105 1.00056L0.631579 0.800435L0.842105 0.600308L1.05263 0.800435ZM2.31579 0.800435L2.10526 1.00056L1.89474 0.800435L2.10526 0.600308L2.31579 0.800435ZM3.36842 1.00056L3.57895 0.800435L3.36842 0.600308L3.15789 0.800435L3.36842 1.00056ZM4.84211 0.800435L4.63158 1.00056L4.42105 0.800435L4.63158 0.600308L4.84211 0.800435ZM5.89474 1.00056L6.10526 0.800435L5.89474 0.600308L5.68421 0.800435L5.89474 1.00056ZM7.36842 0.800435L7.15789 1.00056L6.94737 0.800435L7.15789 0.600308L7.36842 0.800435ZM1.47368 1.80107L1.68421 1.60094L1.47368 1.40082L1.26316 1.60094L1.47368 1.80107ZM2.94737 1.60094L2.73684 1.80107L2.52632 1.60094L2.73684 1.40082L2.94737 1.60094ZM4 1.80107L4.21053 1.60094L4 1.40082L3.78947 1.60094L4 1.80107ZM5.47368 1.60094L5.26316 1.80107L5.05263 1.60094L5.26316 1.40082L5.47368 1.60094ZM6.52632 1.80107L6.73684 1.60094L6.52632 1.40082L6.31579 1.60094L6.52632 1.80107ZM1.05263 2.40145L0.842105 2.60158L0.631579 2.40145L0.842105 2.20132L1.05263 2.40145ZM2.10526 2.60158L2.31579 2.40145L2.10526 2.20132L1.89474 2.40145L2.10526 2.60158ZM3.57895 2.40145L3.36842 2.60158L3.15789 2.40145L3.36842 2.20132L3.57895 2.40145ZM4.63158 2.60158L4.84211 2.40145L4.63158 2.20132L4.42105 2.40145L4.63158 2.60158ZM6.10526 2.40145L5.89474 2.60158L5.68421 2.40145L5.89474 2.20132L6.10526 2.40145ZM7.15789 2.60158L7.36842 2.40145L7.15789 2.20132L6.94737 2.40145L7.15789 2.60158ZM1.68421 3.20196L1.47368 3.40209L1.26316 3.20196L1.47368 3.00183L1.68421 3.20196ZM2.73684 3.40209L2.94737 3.20196L2.73684 3.00183L2.52632 3.20196L2.73684 3.40209ZM4.21053 3.20196L4 3.40209L3.78947 3.20196L4 3.00183L4.21053 3.20196ZM5.26316 3.40209L5.47368 3.20196L5.26316 3.00183L5.05263 3.20196L5.26316 3.40209ZM6.73684 3.20196L6.52632 3.40209L6.31579 3.20196L6.52632 3.00183L6.73684 3.20196ZM0.842105 4.20259L1.05263 4.00247L0.842105 3.80234L0.631579 4.00247L0.842105 4.20259ZM2.31579 4.00247L2.10526 4.20259L1.89474 4.00247L2.10526 3.80234L2.31579 4.00247ZM3.36842 4.20259L3.57895 4.00247L3.36842 3.80234L3.15789 4.00247L3.36842 4.20259ZM4.84211 4.00247L4.63158 4.20259L4.42105 4.00247L4.63158 3.80234L4.84211 4.00247ZM5.89474 4.20259L6.10526 4.00247L5.89474 3.80234L5.68421 4.00247L5.89474 4.20259ZM7.36842 4.00247L7.15789 4.20259L6.94737 4.00247L7.15789 3.80234L7.36842 4.00247ZM1.47368 5.0031L1.68421 4.80298L1.47368 4.60285L1.26316 4.80298L1.47368 5.0031ZM2.94737 4.80298L2.73684 5.0031L2.52632 4.80298L2.73684 4.60285L2.94737 4.80298ZM4 5.0031L4.21053 4.80298L4 4.60285L3.78947 4.80298L4 5.0031ZM5.47368 4.80298L5.26316 5.0031L5.05263 4.80298L5.26316 4.60285L5.47368 4.80298ZM6.52632 5.0031L6.73684 4.80298L6.52632 4.60285L6.31579 4.80298L6.52632 5.0031ZM1.05263 5.60348L0.842105 5.80361L0.631579 5.60348L0.842105 5.40336L1.05263 5.60348ZM2.10526 5.80361L2.31579 5.60348L2.10526 5.40336L1.89474 5.60348L2.10526 5.80361ZM3.57895 5.60348L3.36842 5.80361L3.15789 5.60348L3.36842 5.40336L3.57895 5.60348ZM4.63158 5.80361L4.84211 5.60348L4.63158 5.40336L4.42105 5.60348L4.63158 5.80361ZM6.10526 5.60348L5.89474 5.80361L5.68421 5.60348L5.89474 5.40336L6.10526 5.60348ZM7.15789 5.80361L7.36842 5.60348L7.15789 5.40336L6.94737 5.60348L7.15789 5.80361Z" fill="#022164"/>
<path d="M16 7.39708V8.29765H0V7.39708H16Z" fill="#022164"/>
<path d="M16 10.1989V9.19822H0V10.1989H16Z" fill="#022164"/>
<path d="M16 11.0994V12H0V11.0994H16Z" fill="#022164"/>
</g>
<defs>
<clipPath id="clip0_615_467">
<rect width="8" height="7" fill="white"/>
</clipPath>
</defs>
</svg>
